<?xml version="1.0" encoding="UTF-8"?>
<!DOCTYPE svg  PUBLIC '-//W3C//DTD SVG 1.1//EN'  'http://www.w3.org/Graphics/SVG/1.1/DTD/svg11.dtd'>
<svg enable-background="new 0 0 1634.608 1668.747" version="1.1" viewBox="0 0 1634.608 1668.747" xml:space="preserve" xmlns="http://www.w3.org/2000/svg">
	<circle cx="452.33" cy="526" r="50.51"/>
	<circle cx="1120.6" cy="716.74" r="49.999"/>
	<circle cx="537.76" cy="1530" r="49.603"/>
	<circle cx="541.26" cy="456.6" r="50.109"/>
	<circle cx="1037.6" cy="803.39" r="50.332"/>
	<circle cx="1361.3" cy="1402.4" r="49.765"/>
	<circle cx="1495.8" cy="1217.1" r="50.52"/>
	<circle cx="1533.5" cy="1090.4" r="49.87"/>
	<circle cx="785.44" cy="1459.8" r="51.208"/>
	<circle cx="1251.7" cy="1348.7" r="50.049"/>
	<circle cx="330.8" cy="1471.4" r="50.298"/>
	<circle cx="1126" cy="1313.4" r="50.527"/>
	<circle cx="343.4" cy="539.76" r="49.856"/>
	<circle cx="589.65" cy="955.94" r="50.79"/>
	<circle cx="1269" cy="666.02" r="49.691"/>
	<circle cx="491.04" cy="928.48" r="49.86"/>
	<circle cx="753.44" cy="613.2" r="50.908"/>
	<circle cx="805.43" cy="1256.5" r="49.701"/>
	<circle cx="910.63" cy="979.99" r="51.612"/>
	<circle cx="1364" cy="1290.1" r="49.751"/>
	<circle cx="671.05" cy="514.73" r="50.14"/>
	<circle cx="423.28" cy="1545.8" r="50.204"/>
	<circle cx="640.43" cy="1443.2" r="50.019"/>
	<circle cx="802.81" cy="1125.6" r="50.001"/>
	<circle cx="694.85" cy="1538.6" r="50.466"/>
	<circle cx="770.93" cy="1350.6" r="49.592"/>
	<circle cx="1048.6" cy="914.64" r="49.847"/>
	<circle cx="736.51" cy="1021.5" r="51.431"/>
	<circle cx="239.06" cy="1396.4" r="49.954"/>
	<circle cx="1182.5" cy="1422.6" r="49.787"/>
	<circle cx="609.11" cy="1574.7" r="33.585"/>
	<circle cx="562.02" cy="852.71" r="33.346"/>
	<circle cx="255.65" cy="496.19" r="34.368"/>
	<circle cx="1551.5" cy="975.95" r="33.593"/>
	<circle cx="114.46" cy="1253" r="35.49"/>
	<circle cx="408.76" cy="442.16" r="33.11"/>
	<circle cx="1379.7" cy="649.51" r="34.327"/>
	<circle cx="819.39" cy="996.88" r="33.08"/>
	<circle cx="1183.6" cy="602.78" r="33.813"/>
	<circle cx="591.86" cy="546.21" r="33.282"/>
	<circle cx="748.84" cy="724.38" r="33.796"/>
	<circle cx="481.94" cy="1465.6" r="33.336"/>
	<circle cx="639.81" cy="435.07" r="33.496"/>
	<circle cx="416.84" cy="1448.1" r="33.078"/>
	<circle cx="950.28" cy="876.25" r="36.249"/>
	<circle cx="162.76" cy="1342.8" r="33.371"/>
	<circle cx="1126.6" cy="803.63" r="34.983"/>
	<circle cx="1275" cy="1431.5" r="33.34"/>
	<circle cx="504.6" cy="1011.5" r="33.287"/>
	<circle cx="685.08" cy="805.72" r="34.225"/>
	<circle cx="292.8" cy="623.59" r="34.021"/>
	<circle cx="1481.2" cy="729.48" r="22.426"/>
	<circle cx="1478.6" cy="1345.6" r="23.417"/>
	<circle cx="663.79" cy="1001.4" r="23.012"/>
	<circle cx="811.81" cy="1052.5" r="22.063"/>
	<circle cx="1504" cy="771.13" r="22.123"/>
	<circle cx="1076.2" cy="656.24" r="23.084"/>
	<circle cx="1110" cy="1398.7" r="22.295"/>
	<circle cx="1056.5" cy="1267" r="23.43"/>
	<circle cx="1052.4" cy="1313.3" r="22.063"/>
	<circle cx="666.83" cy="946.18" r="22.256"/>
	<circle cx="996.15" cy="971.95" r="22.292"/>
	<circle cx="634.06" cy="863.06" r="23.072"/>
	<circle cx="500.25" cy="1597.8" r="22.817"/>
	<circle cx="1534.9" cy="902.16" r="22.498"/>
	<circle cx="544.11" cy="1442.8" r="22.158"/>
	<circle cx="471.19" cy="855.41" r="22.874"/>
	<circle cx="305.73" cy="463.68" r="23.608"/>
	<circle cx="1422.1" cy="1231.3" r="23.557"/>
	<circle cx="483.44" cy="396.98" r="23.01"/>
	<circle cx="1466.4" cy="1285.4" r="22.816"/>
	<circle cx="86.939" cy="1164.9" r="22.78"/>
	<circle cx="1324.9" cy="608.21" r="23.19"/>
	<circle cx="1511.9" cy="831.63" r="23.117"/>
	<circle cx="247.71" cy="561.63" r="23.329"/>
	<circle cx="852.29" cy="1384.2" r="23.784"/>
	<circle cx="549.69" cy="1611.1" r="23.258"/>
	<circle cx="714.36" cy="1401.5" r="23.472"/>
	<circle cx="1428.8" cy="1336.4" r="23.938"/>
	<circle cx="396.27" cy="590.14" r="22.164"/>
	<circle cx="1117.6" cy="861.79" r="22.874"/>
	<circle cx="1287.2" cy="1283.5" r="23.141"/>
	<circle cx="851.36" cy="1332.1" r="23.277"/>
	<circle cx="1177.2" cy="769.48" r="25.021"/>
	<circle cx="752.7" cy="510.11" r="23.919"/>
	<circle cx="347.14" cy="612.59" r="15.516"/>
	<circle cx="470.93" cy="462.36" r="14.79"/>
	<circle cx="1441.3" cy="681.52" r="14.816"/>
	<circle cx="1434.6" cy="1181.8" r="15.442"/>
	<circle cx="1153.2" cy="652.23" r="14.944"/>
	<circle cx="561.27" cy="1020.1" r="15.259"/>
	<circle cx="1049.6" cy="706.04" r="15.44"/>
	<circle cx="347.44" cy="1537.2" r="16.41"/>
	<circle cx="1211.8" cy="742.06" r="15.588"/>
	<circle cx="718.9" cy="1452.7" r="14.716"/>
	<circle cx="1180.1" cy="676.91" r="18.063"/>
	<circle cx="949.21" cy="823.44" r="15.566"/>
	<circle cx="700.59" cy="438.45" r="15.02"/>
	<circle cx="1272.9" cy="586.09" r="15.743"/>
	<circle cx="610.58" cy="480.2" r="15.933"/>
	<circle cx="1437.7" cy="1379.1" r="15.373"/>
	<circle cx="854.76" cy="1192.5" r="15.493"/>
	<circle cx="518.21" cy="828.55" r="15.687"/>
	<circle cx="310.51" cy="1402.6" r="15.583"/>
	<circle cx="1031.6" cy="1235.8" r="14.864"/>
	<circle cx="667.21" cy="1378.3" r="18.007"/>
	<circle cx="359.14" cy="440.52" r="15.528"/>
	<circle cx="1557.1" cy="1168.4" r="19.031"/>
	<circle cx="177.4" cy="1294.5" r="14.727"/>
	<circle cx="591.74" cy="399.82" r="15.701"/>
	<circle cx="1570" cy="1022.1" r="15.09"/>
	<circle cx="785.73" cy="676.45" r="16.19"/>
	<circle cx="1527.8" cy="1279.3" r="15.072"/>
	<circle cx="209.99" cy="1458.8" r="15.915"/>
	<circle cx="1527.4" cy="1024.8" r="15.002"/>
	<circle cx="658.58" cy="1594.9" r="14.738"/>
	<circle cx="352.36" cy="1406.5" r="17.081"/>
	<circle cx="1207.2" cy="1286.1" r="15.141"/>
	<circle cx="551.28" cy="389.92" r="15.175"/>
	<circle cx="728.81" cy="678.63" r="15.143"/>
	<circle cx="542.92" cy="543.68" r="14.716"/>
	<circle cx="490.69" cy="821.38" r="11.747"/>
	<circle cx="686.96" cy="580.13" r="13.873"/>
	<circle cx="480.17" cy="1570.8" r="9.816"/>
	<circle cx="1591.1" cy="1071.4" r="9.816"/>
	<circle cx="1358.5" cy="1466.7" r="11.679"/>
	<circle cx="657.57" cy="574.18" r="9.816"/>
	<circle cx="1551.3" cy="873.13" r="9.816"/>
	<circle cx="819.4" cy="1405.4" r="11.932"/>
	<circle cx="1436" cy="1270.9" r="9.923"/>
	<circle cx="747.16" cy="1086" r="10.713"/>
	<circle cx="1137.4" cy="619.47" r="12.309"/>
	<circle cx="1044" cy="991.86" r="12.024"/>
	<circle cx="1181.4" cy="730.35" r="11.327"/>
	<circle cx="489.53" cy="1416" r="10.7"/>
	<circle cx="914.8" cy="907.19" r="9.816"/>
	<circle cx="790.43" cy="1195.3" r="9.987"/>
	<circle cx="1425.8" cy="646.6" r="10.872"/>
	<circle cx="1477.4" cy="1130.7" r="15.629"/>
	<circle cx="1294.9" cy="1473.3" r="10.134"/>
	<circle cx="1067.2" cy="745.89" r="9.816"/>
	<circle cx="123.71" cy="1198.3" r="10.509"/>
	<circle cx="460.63" cy="992.97" r="9.991"/>
	<circle cx="445.32" cy="400.22" r="11.097"/>
	<circle cx="360.66" cy="476.49" r="12.812"/>
	<circle cx="728.34" cy="790.38" r="10.342"/>
	<circle cx="876.58" cy="1307.8" r="10.776"/>
	<circle cx="710.46" cy="958.84" r="10.466"/>
	<circle cx="1124.6" cy="652.85" r="10.795"/>
	<circle cx="692.5" cy="1349.4" r="14.197"/>
	<circle cx="1297.1" cy="575.01" r="9.816"/>
	<circle cx="1307.2" cy="1321.9" r="10.56"/>
	<circle cx="976.61" cy="808.27" r="9.816"/>
	<circle cx="1192.7" cy="1309.8" r="11.64"/>
	<circle cx="971.24" cy="1001.1" r="11.574"/>
	<circle cx="739.29" cy="1271.1" r="11.358"/>
	<circle cx="250.88" cy="1482.3" r="16.258"/>
	<circle cx="1219.3" cy="704.13" r="11.925"/>
	<circle cx="1227.9" cy="578.46" r="12.925"/>
	<circle cx="373.87" cy="619.8" r="11.163"/>
	<circle cx="791.73" cy="557.61" r="11.194"/>
	<circle cx="873.55" cy="1273.4" r="10.538"/>
	<circle cx="1059.1" cy="1368.1" r="10.513"/>
	<circle cx="727.56" cy="486.14" r="9.816"/>
	<circle cx="583.08" cy="894.69" r="9.816"/>
	<circle cx="1514.9" cy="1333.9" r="10.102"/>
	<circle cx="200.26" cy="1313.5" r="13.181"/>
	<circle cx="229.2" cy="1331" r="11.46"/>
	<circle cx="717.4" cy="758.25" r="11.416"/>
	<circle cx="820.94" cy="1197.8" r="9.977"/>
	<circle cx="270.1" cy="1448.8" r="9.918"/>
	<circle cx="114.61" cy="1307.5" r="10.325"/>
	<circle cx="281.65" cy="554.88" r="10.281"/>
	<circle cx="880.98" cy="1243.8" r="11.12"/>
	<circle cx="622.41" cy="821.92" r="11.108"/>
	<circle cx="394.19" cy="483.61" r="9.816"/>
	<circle cx="548.44" cy="907.65" r="10.2"/>
	<circle cx="413.93" cy="862.8" r="10.585"/>
	<circle cx="849.29" cy="1434.5" r="13.494"/>
	<circle cx="439.56" cy="892.3" r="10.71"/>
	<circle cx="467.45" cy="434.31" r="12.441"/>
	<circle cx="155.01" cy="1282.2" r="9.816"/>
	<circle cx="1079.9" cy="1376.9" r="11.153"/>
	<circle cx="1473.3" cy="1160" r="9.816"/>
	<circle cx="437.32" cy="827.58" r="12.532"/>
	<circle cx="756.86" cy="1519.8" r="13.319"/>
	<circle cx="1023.2" cy="1206.9" r="10.849"/>
	<circle cx="1104.3" cy="949.05" r="7.435"/>
	<circle cx="275.14" cy="1498.5" r="10.599"/>
	<circle cx="552.23" cy="1410.7" r="8.501"/>
	<circle cx="170.4" cy="1391.3" r="8.722"/>
	<circle cx="1022.3" cy="708.94" r="6.568"/>
	<circle cx="683.5" cy="1398.3" r="6.547"/>
	<circle cx="1457" cy="1166.9" r="6.854"/>
	<circle cx="736.26" cy="1291.6" r="7.178"/>
	<circle cx="685.84" cy="1051.7" r="6.547"/>
	<circle cx="737.52" cy="764.14" r="6.547"/>
	<circle cx="1057.3" cy="730.72" r="7.277"/>
	<circle cx="958.18" cy="1017.7" r="8.102"/>
	<circle cx="466.72" cy="820.19" r="11.247"/>
	<circle cx="1532.2" cy="869.18" r="8.674"/>
	<circle cx="509.75" cy="864.27" r="9.506"/>
	<circle cx="1563.2" cy="920.12" r="8.54"/>
	<circle cx="602.27" cy="1016.2" r="9.289"/>
	<circle cx="1376.7" cy="1226.2" r="14.381"/>
	<circle cx="565.08" cy="1479.8" r="6.547"/>
	<circle cx="1214.6" cy="630.12" r="6.547"/>
	<circle cx="1452.1" cy="736.46" r="6.547"/>
	<circle cx="442.2" cy="959.25" r="6.863"/>
	<circle cx="953.41" cy="924.25" r="10.008"/>
	<circle cx="583.88" cy="1607.8" r="7.029"/>
	<circle cx="1544.5" cy="824.52" r="7.66"/>
	<circle cx="63.668" cy="1051.2" r="8.415"/>
	<circle cx="45.083" cy="1046.7" r="8.415"/>
	<circle cx="46.59" cy="1070.5" r="8.415"/>
	<circle cx="649.57" cy="836.66" r="6.547"/>
	<circle cx="770.93" cy="1075.1" r="7.205"/>
	<circle cx="1092.3" cy="1251.2" r="7.362"/>
	<circle cx="1075.7" cy="1240.4" r="7.362"/>
	<circle cx="1008.9" cy="1281" r="7.362"/>
	<circle cx="1018.7" cy="1311.7" r="7.362"/>
	<circle cx="698.21" cy="742.39" r="6.604"/>
	<circle cx="1053.7" cy="1221.8" r="8.716"/>
	<circle cx="1013.5" cy="1259.8" r="8.716"/>
	<circle cx="1405.6" cy="687.46" r="9.9"/>
	<circle cx="435.54" cy="1488.2" r="7.766"/>
	<circle cx="1333.5" cy="644.81" r="8.15"/>
	<circle cx="97.091" cy="1196.8" r="7.822"/>
	<circle cx="57.66" cy="1145.6" r="7.822"/>
	<circle cx="52.637" cy="1116.9" r="7.822"/>
	<circle cx="1476.6" cy="698.94" r="7.454"/>
	<circle cx="1093.5" cy="831.15" r="7.052"/>
	<circle cx="980.64" cy="1020.4" r="7.139"/>
	<circle cx="626.71" cy="1499.1" r="6.547"/>
	<circle cx="123.27" cy="1329.4" r="7.091"/>
	<circle cx="599.24" cy="835.59" r="6.611"/>
	<circle cx="1319.2" cy="638.4" r="6.547"/>
	<circle cx="553.11" cy="513.11" r="6.625"/>
	<circle cx="716.58" cy="554.32" r="9.187"/>
	<circle cx="452.5" cy="879.42" r="6.547"/>
	<circle cx="641.61" cy="916.93" r="7.622"/>
	<circle cx="285.42" cy="1432" r="7.47"/>
	<circle cx="81.52" cy="1104.8" r="8.847"/>
	<circle cx="1072.8" cy="976.66" r="9.752"/>
	<circle cx="334.42" cy="631.83" r="6.547"/>
	<circle cx="413.28" cy="483.03" r="6.547"/>
	<circle cx="1125.3" cy="596.17" r="7.581"/>
	<circle cx="1051" cy="1343.1" r="6.755"/>
	<circle cx="1094.2" cy="1427.5" r="6.755"/>
	<circle cx="1107.1" cy="1445.4" r="6.755"/>
	<circle cx="1167.6" cy="1478.8" r="6.755"/>
	<circle cx="1192.4" cy="1484.5" r="6.755"/>
	<circle cx="1080.3" cy="863.09" r="9.109"/>
	<circle cx="533.61" cy="976.31" r="7.832"/>
	<circle cx="757.67" cy="674.45" r="9.487"/>
	<circle cx="1397.4" cy="1336.7" r="6.547"/>
	<circle cx="565.76" cy="899.04" r="7.035"/>
	<circle cx="1086.3" cy="765.72" r="8.777"/>
	<circle cx="726.37" cy="531.46" r="6.644"/>
	<circle cx="1185" cy="1350.4" r="15.629"/>
	<circle cx="333.22" cy="440.67" r="6.689"/>
	<circle cx="859.14" cy="1163.8" r="9.437"/>
	<circle cx="602.87" cy="1527.8" r="9.773"/>
	<circle cx="841.72" cy="1168.4" r="6.839"/>
	<circle cx="729.41" cy="454.51" r="7.893"/>
	<circle cx="1003.7" cy="1011.3" r="9.922"/>
	<circle cx="1112.3" cy="905.89" r="7.294"/>
	<circle cx="1505.3" cy="873.5" r="7.79"/>
	<circle cx="765.91" cy="1209.9" r="8.104"/>
	<circle cx="252.17" cy="614.81" r="6.547"/>
	<circle cx="127.28" cy="1294.1" r="6.547"/>
	<circle cx="121" cy="1351.8" r="6.547"/>
	<circle cx="132.55" cy="1374.9" r="6.547"/>
	<circle cx="148.12" cy="1387" r="6.547"/>
	<circle cx="155.16" cy="1408.3" r="6.547"/>
	<circle cx="182.53" cy="1414.1" r="6.547"/>
	<circle cx="745.99" cy="1409.6" r="8.167"/>
	<circle cx="286.05" cy="1513.8" r="7.141"/>
	<circle cx="864.07" cy="1230.4" r="9.461"/>
	<circle cx="377.26" cy="1580.7" r="6.547"/>
	<circle cx="717.43" cy="1327.6" r="7.672"/>
	<circle cx="772.5" cy="537.04" r="7.192"/>
	<circle cx="1529.7" cy="1152.8" r="10.321"/>
	<circle cx="1123.3" cy="893.53" r="8.211"/>
	<circle cx="985.52" cy="843.36" r="10.947"/>
	<circle cx="242.82" cy="592.12" r="6.547"/>
	<circle cx="1497.2" cy="1299.2" r="9.877"/>
	<circle cx="1211.9" cy="662.22" r="6.557"/>
	<circle cx="73.87" cy="1201.7" r="9.026"/>
	<circle cx="1107.4" cy="620.21" r="16.636"/>
	<circle cx="715.9" cy="777.52" r="6.547"/>
	<circle cx="329.84" cy="1556.4" r="8.333"/>
	<circle cx="787.94" cy="706.99" r="7.984"/>
	<circle cx="595.19" cy="1492.7" r="13.524"/>
	<circle cx="726.33" cy="1480.7" r="10.468"/>
	<circle cx="994.52" cy="881.42" r="7.292"/>
	<circle cx="761.79" cy="550.5" r="7.928"/>
	<circle cx="1228.9" cy="1462.2" r="10.151"/>
	<circle cx="1219.1" cy="1487" r="10.151"/>
	<circle cx="1362.9" cy="607.59" r="7.812"/>
	<circle cx="1198.3" cy="641.48" r="6.592"/>
	<circle cx="206.94" cy="495.84" r="7.627"/>
	<circle cx="428.97" cy="912.65" r="9.69"/>
	<circle cx="641.36" cy="1616.9" r="8.082"/>
	<circle cx="765.26" cy="1177.3" r="10.229"/>
	<circle cx="1446.5" cy="657.78" r="8.481"/>
	<circle cx="748.57" cy="1294" r="4.367"/>
	<circle cx="1232.8" cy="616.18" r="5.636"/>
	<circle cx="1320" cy="1454.8" r="11.472"/>
	<circle cx="1188.7" cy="1326.8" r="4.801"/>
	<circle cx="305.26" cy="582.46" r="6.394"/>
	<circle cx="1042.3" cy="1198.9" r="6.333"/>
	<circle cx="1008.2" cy="1224" r="6.333"/>
	<circle cx="1002.1" cy="1203.6" r="6.333"/>
	<circle cx="1004.6" cy="1189.3" r="6.333"/>
	<circle cx="1001.9" cy="1173.5" r="6.333"/>
	<circle cx="1017.5" cy="1159.7" r="6.333"/>
	<circle cx="1004.1" cy="1155.9" r="6.333"/>
	<circle cx="1014.2" cy="1143.1" r="6.333"/>
	<circle cx="1004.1" cy="1121.8" r="6.333"/>
	<circle cx="1004.1" cy="1106.9" r="3.822"/>
	<circle cx="938.6" cy="920.09" r="4.367"/>
	<circle cx="1340.5" cy="675.41" r="6.753"/>
	<circle cx="1374.3" cy="601.05" r="4.367"/>
	<circle cx="752.31" cy="771.78" r="7.02"/>
	<circle cx="1305.9" cy="1369.1" r="6.846"/>
	<circle cx="806.69" cy="594.96" r="4.367"/>
	<circle cx="983.7" cy="746.19" r="7.532"/>
	<circle cx="509.38" cy="1419" r="8.377"/>
	<circle cx="62.043" cy="1097.3" r="5.937"/>
	<circle cx="1171.4" cy="1367" r="4.845"/>
	<circle cx="376.86" cy="1435" r="7.45"/>
	<circle cx="981.81" cy="929.39" r="6.043"/>
	<circle cx="825.01" cy="1309.7" r="6.056"/>
	<circle cx="855.53" cy="1416.7" r="4.367"/>
	<circle cx="1039.7" cy="730.92" r="9.301"/>
	<circle cx="1590.3" cy="1108" r="4.708"/>
	<circle cx="270.14" cy="1517.1" r="6.977"/>
	<circle cx="1571.5" cy="931.3" r="4.367"/>
	<circle cx="274.8" cy="1476" r="4.881"/>
	<circle cx="588.09" cy="1012.5" r="4.367"/>
	<circle cx="1140.7" cy="1377.4" r="9.942"/>
	<circle cx="1084.7" cy="620.12" r="5.067"/>
	<circle cx="1411.9" cy="1430" r="6.818"/>
	<circle cx="981.34" cy="773.06" r="12.552"/>
	<circle cx="1418.3" cy="1371.6" r="4.367"/>
	<circle cx="1395.7" cy="1211" r="7.925"/>
	<circle cx="710.92" cy="573.65" r="5.37"/>
	<circle cx="1025.3" cy="720.58" r="4.446"/>
	<circle cx="1399.1" cy="614.87" r="4.367"/>
	<circle cx="506.52" cy="380.47" r="4.367"/>
	<circle cx="577.62" cy="1425.8" r="7.053"/>
	<circle cx="969.13" cy="966.01" r="4.367"/>
	<circle cx="295.61" cy="1423.4" r="4.854"/>
	<circle cx="520.27" cy="567.37" r="7.354"/>
	<circle cx="1132" cy="911.93" r="5.329"/>
	<circle cx="1464.6" cy="1372.7" r="6.138"/>
	<circle cx="681.88" cy="602.29" r="7.857"/>
	<circle cx="628.96" cy="798.34" r="6.897"/>
	<circle cx="531.86" cy="810.87" r="4.425"/>
	<circle cx="1589.1" cy="1045.9" r="5.392"/>
	<circle cx="1543" cy="811.58" r="4.367"/>
	<circle cx="717.15" cy="944.48" r="4.367"/>
	<circle cx="374.75" cy="424.14" r="4.37"/>
	<circle cx="1226.1" cy="722.2" r="6.38"/>
	<circle cx="1245.6" cy="1403.7" r="4.367"/>
	<circle cx="1022.4" cy="1178.3" r="10.683"/>
	<circle cx="634.99" cy="583.27" r="5.064"/>
	<circle cx="1470.9" cy="769.07" r="4.682"/>
	<circle cx="316.77" cy="664.22" r="7.121"/>
	<circle cx="1096.2" cy="1263.3" r="4.367"/>
	<circle cx="785.42" cy="1073" r="4.367"/>
	<circle cx="1239.3" cy="601.36" r="5.893"/>
	<circle cx="316.96" cy="1550.7" r="4.739"/>
	<circle cx="154.05" cy="1266.8" r="4.695"/>
	<circle cx="182.08" cy="1399.2" r="4.367"/>
	<circle cx="507.51" cy="545.6" r="7.043"/>
	<circle cx="1409" cy="1374.9" r="4.367"/>
	<circle cx="804.02" cy="1185.4" r="5.839"/>
	<circle cx="1019.4" cy="866.1" r="5.776"/>
	<circle cx="1328.6" cy="1350.3" r="9.977"/>
	<circle cx="1543.3" cy="1260.8" r="5.611"/>
	<circle cx="518.34" cy="877.29" r="5.089"/>
	<circle cx="400.15" cy="555.76" r="4.501"/>
	<circle cx="1430" cy="698.27" r="4.367"/>
	<circle cx="1425.1" cy="1200.9" r="4.901"/>
	<circle cx="74.544" cy="1067.9" r="4.867"/>
	<circle cx="76.051" cy="1091.7" r="4.867"/>
	<circle cx="58.471" cy="1082.7" r="4.867"/>
	<circle cx="1498.8" cy="1324.8" r="4.571"/>
	<circle cx="1577.2" cy="1045.7" r="5.532"/>
	<circle cx="823.15" cy="1385.2" r="4.367"/>
	<circle cx="477.29" cy="1505.2" r="4.953"/>
	<circle cx="1051.8" cy="1234.9" r="4.367"/>
	<circle cx="620.96" cy="1025.1" r="7.451"/>
	<circle cx="1187.6" cy="1279.9" r="4.367"/>
	<circle cx="889.3" cy="1271.1" r="4.367"/>
	<circle cx="1469.1" cy="1315" r="5.921"/>
	<circle cx="119.75" cy="1181.7" r="5.608"/>
	<circle cx="426.91" cy="402.27" r="5.651"/>
	<circle cx="290.35" cy="676.05" r="9.883"/>
	<circle cx="1055.6" cy="978.41" r="4.772"/>
	<circle cx="577.12" cy="1448.8" r="6.941"/>
	<circle cx="694.23" cy="1476.9" r="5.074"/>
	<circle cx="1425.4" cy="619.04" r="6.151"/>
	<circle cx="1203.4" cy="678.4" r="4.367"/>
	<circle cx="406.56" cy="842.47" r="9.78"/>
	<circle cx="393.64" cy="801.94" r="6.141"/>
	<circle cx="1203.1" cy="1474.3" r="4.859"/>
	<circle cx="550.23" cy="1001.6" r="5.243"/>
	<circle cx="776.32" cy="756.01" r="4.394"/>
	<circle cx="69.849" cy="1127.4" r="7.297"/>
	<circle cx="50.008" cy="1028.9" r="7.297"/>
	<circle cx="41.972" cy="1010.8" r="7.297"/>
	<circle cx="43.73" cy="994.26" r="7.297"/>
	<circle cx="41.972" cy="967.88" r="7.297"/>
	<circle cx="40.967" cy="948.3" r="7.297"/>
	<circle cx="169.34" cy="1405.7" r="4.766"/>
	<circle cx="433.15" cy="411.36" r="4.367"/>
	<circle cx="342.15" cy="471.52" r="5.344"/>
	<circle cx="1027.3" cy="1324.9" r="4.558"/>
	<circle cx="643.39" cy="898.14" r="4.886"/>
	<circle cx="1142.3" cy="592.11" r="7.832"/>
	<circle cx="1005.2" cy="855.54" r="4.476"/>
	<circle cx="778.18" cy="1186.1" r="4.367"/>
	<circle cx="1321.1" cy="1255.3" r="4.513"/>
	<circle cx="454.71" cy="414.28" r="4.804"/>
	<circle cx="1541.4" cy="931.75" r="6.78"/>
	<circle cx="1509.4" cy="961.58" r="5.38"/>
	<circle cx="1488.1" cy="1150" r="5.413"/>
	<circle cx="449.79" cy="982.08" r="4.367"/>
	<circle cx="637.44" cy="1509.7" r="4.481"/>
	<circle cx="487.47" cy="1506.9" r="4.367"/>
	<circle cx="599.65" cy="880.94" r="10.713"/>
	<circle cx="326.42" cy="1383.3" r="4.822"/>
	<circle cx="701.97" cy="940.74" r="7.318"/>
	<circle cx="617.94" cy="1529.2" r="4.367"/>
	<circle cx="796.07" cy="1527.8" r="6.313"/>
	<circle cx="577.78" cy="498.37" r="4.367"/>
	<circle cx="576.28" cy="1624.9" r="5.674"/>
	<circle cx="412.15" cy="824.09" r="8.426"/>
	<circle cx="324.92" cy="431.92" r="4.367"/>
	<circle cx="741.05" cy="537.39" r="4.739"/>
	<circle cx="882.62" cy="913.51" r="8.361"/>
	<circle cx="1155.3" cy="1372.7" r="4.367"/>
	<circle cx="98.218" cy="1129.8" r="5.019"/>
	<circle cx="402.76" cy="1490.4" r="7.941"/>
	<circle cx="686.09" cy="1483.5" r="4.367"/>
	<circle cx="776.31" cy="549.01" r="4.367"/>
	<circle cx="1431.8" cy="662.84" r="5.148"/>
	<circle cx="1140.4" cy="842.11" r="4.893"/>
	<circle cx="1075.1" cy="1349" r="9.014"/>
	<circle cx="1060.8" cy="1393" r="9.014"/>
	<circle cx="1079.2" cy="1410.5" r="9.014"/>
	<circle cx="1125.4" cy="1451" r="9.014"/>
	<circle cx="189.56" cy="1433.3" r="6.828"/>
	<circle cx="1505.8" cy="1146.2" r="4.923"/>
	<circle cx="1437.9" cy="1410.8" r="7.55"/>
	<circle cx="570.08" cy="401.82" r="5.043"/>
	<circle cx="788.15" cy="516.36" r="6.06"/>
	<circle cx="863.65" cy="1022.3" r="8.685"/>
	<circle cx="1004.6" cy="871.15" r="6.064"/>
	<circle cx="1094" cy="778.22" r="4.896"/>
	<circle cx="629.77" cy="567.84" r="8.377"/>
	<circle cx="1343.3" cy="1483.8" r="5.558"/>
	<circle cx="689.12" cy="1386.5" r="4.367"/>
	<circle cx="1026.9" cy="742.35" r="6.87"/>
	<circle cx="628.58" cy="1516.4" r="5.662"/>
	<circle cx="970.05" cy="982.04" r="4.683"/>
	<circle cx="450.49" cy="384.58" r="4.367"/>
	<circle cx="1417.1" cy="1306.3" r="4.797"/>
	<circle cx="1353.6" cy="1344.5" r="4.615"/>
	<circle cx="1467.9" cy="688.3" r="5.305"/>
	<circle cx="714.68" cy="473.21" r="6.659"/>
	<circle cx="1258.8" cy="721.04" r="5.261"/>
	<circle cx="1124.8" cy="1428.8" r="4.784"/>
	<circle cx="462.05" cy="1594" r="4.741"/>
	<circle cx="857.86" cy="1300.2" r="8.289"/>
	<circle cx="553.8" cy="890.54" r="4.367"/>
	<circle cx="1490.7" cy="1315.2" r="6.31"/>
	<circle cx="521.97" cy="386.07" r="9.234"/>
	<circle cx="1038.4" cy="1209" r="3.493"/>
	<circle cx="709.2" cy="1484" r="5.011"/>
	<circle cx="522.58" cy="1615.2" r="3.158"/>
	<circle cx="1526" cy="946.16" r="4.63"/>
	<circle cx="751.72" cy="1149.9" r="5.566"/>
	<circle cx="612.07" cy="1516.5" r="3.775"/>
	<circle cx="1001.6" cy="944.9" r="4.296"/>
	<circle cx="1061.6" cy="1353.9" r="2.913"/>
	<circle cx="573.83" cy="1465" r="8.629"/>
	<circle cx="584" cy="1440.4" r="2.913"/>
	<circle cx="761.36" cy="1080.8" r="2.913"/>
	<circle cx="1409.7" cy="700.67" r="2.913"/>
	<circle cx="536.62" cy="1468.8" r="3.892"/>
	<circle cx="896.18" cy="919.98" r="5.657"/>
	<circle cx="71.347" cy="1138.5" r="2.913"/>
	<circle cx="598.99" cy="459.38" r="6.68"/>
	<circle cx="289.92" cy="571.83" r="7.576"/>
	<circle cx="1005.1" cy="732.47" r="12.264"/>
	<circle cx="782.38" cy="525.86" r="4.054"/>
	<circle cx="206.64" cy="1346.1" r="8.877"/>
	<circle cx="1577.4" cy="1150.7" r="4.735"/>
	<circle cx="834.71" cy="946.12" r="3.594"/>
	<circle cx="872.09" cy="1206.6" r="5.804"/>
	<circle cx="385.68" cy="1474.5" r="3.658"/>
	<circle cx="517.53" cy="850.55" r="5.259"/>
	<circle cx="1041" cy="976.21" r="2.913"/>
	<circle cx="1504.9" cy="1274.6" r="6.761"/>
	<circle cx="1549.2" cy="1244.6" r="4.607"/>
	<circle cx="1010.6" cy="714.23" r="3.894"/>
	<circle cx="433.37" cy="849.36" r="8.593"/>
	<circle cx="1080.3" cy="958.34" r="3.131"/>
	<circle cx="1179.4" cy="1287.7" r="6"/>
	<circle cx="1538.7" cy="845.1" r="5.861"/>
	<circle cx="690.07" cy="749.06" r="2.913"/>
	<circle cx="1511.8" cy="1152.7" r="2.913"/>
	<circle cx="859.78" cy="948.1" r="4.764"/>
	<circle cx="1380.6" cy="1458.1" r="3.177"/>
	<circle cx="878.76" cy="1288.9" r="4.79"/>
	<circle cx="540.4" cy="1035.9" r="7.322"/>
	<circle cx="1513.1" cy="1347.8" r="2.913"/>
	<circle cx="194.9" cy="489.32" r="4.309"/>
	<circle cx="1127.3" cy="1420.5" r="2.913"/>
	<circle cx="957.78" cy="801.66" r="4.999"/>
	<circle cx="1175.4" cy="814.5" r="4.015"/>
	<circle cx="1398.7" cy="1443.5" r="4.765"/>
	<circle cx="1265.6" cy="1477.2" r="3.743"/>
	<circle cx="1470.6" cy="1383.8" r="5.416"/>
	<circle cx="997.15" cy="857.91" r="2.913"/>
	<circle cx="629.62" cy="1380.9" r="6.662"/>
	<circle cx="245.43" cy="604.81" r="4.51"/>
	<circle cx="184.84" cy="1386.5" r="4.155"/>
	<circle cx="295.72" cy="503.44" r="2.97"/>
	<circle cx="1103.9" cy="898.46" r="2.913"/>
	<circle cx="1547.2" cy="782.23" r="4.83"/>
	<circle cx="703.46" cy="1367" r="5.571"/>
	<circle cx="1015.6" cy="720.18" r="2.913"/>
	<circle cx="643.94" cy="1559.6" r="3.368"/>
	<circle cx="1480.1" cy="790.49" r="5.382"/>
	<circle cx="186.67" cy="489.41" r="2.913"/>
	<circle cx="1333.2" cy="667.59" r="2.913"/>
	<circle cx="613.3" cy="902.67" r="6.496"/>
	<circle cx="972.83" cy="919.92" r="5.059"/>
	<circle cx="350.22" cy="463.41" r="2.913"/>
	<circle cx="642.84" cy="931.57" r="4.82"/>
	<circle cx="693.64" cy="420.84" r="2.913"/>
	<circle cx="293.93" cy="496.8" r="2.913"/>
	<circle cx="1347.2" cy="686.56" r="4.767"/>
	<circle cx="967.92" cy="932.85" r="5.855"/>
	<circle cx="574.72" cy="512.92" r="3.152"/>
	<circle cx="1517.8" cy="926.32" r="4.747"/>
	<circle cx="990.77" cy="933.74" r="2.913"/>
	<circle cx="1192.3" cy="743.82" r="2.913"/>
	<circle cx="1253.3" cy="606.73" r="8.097"/>
	<circle cx="673.94" cy="417.27" r="3.99"/>
	<circle cx="744.84" cy="791.48" r="3.27"/>
	<circle cx="1351.9" cy="612.02" r="3.012"/>
	<circle cx="595.79" cy="1615.3" r="6.045"/>
	<circle cx="1248.7" cy="589.93" r="4.263"/>
	<circle cx="330.2" cy="451.08" r="2.913"/>
	<circle cx="1028.1" cy="989.64" r="3.011"/>
	<circle cx="1276.2" cy="607.5" r="4.91"/>
	<circle cx="992.11" cy="760.4" r="3.071"/>
	<circle cx="673.23" cy="451.88" r="2.913"/>
	<circle cx="603.02" cy="415.86" r="2.913"/>
	<circle cx="639.57" cy="1517.8" r="2.913"/>
	<circle cx="473.63" cy="1424.6" r="6.395"/>
	<circle cx="52.696" cy="981.41" r="6.279"/>
	<circle cx="40.641" cy="931.68" r="5.023"/>
	<circle cx="40.138" cy="918.62" r="4.521"/>
	<circle cx="662.69" cy="1040.8" r="5.174"/>
	<circle cx="101.27" cy="1142.4" r="2.913"/>
	<circle cx="369.32" cy="1419.8" r="3.416"/>
	<circle cx="1498.7" cy="1045.5" r="3.99"/>
	<circle cx="1108.9" cy="1260.3" r="4.257"/>
	<circle cx="1453.2" cy="1140.3" r="3.095"/>
	<circle cx="1234" cy="736.05" r="6.477"/>
	<circle cx="254.4" cy="1502.6" r="3.341"/>
	<circle cx="216.72" cy="489.7" r="2.913"/>
	<circle cx="1087.4" cy="951.84" r="2.913"/>
	<circle cx="416.47" cy="884.46" r="3.678"/>
	<circle cx="1552.6" cy="1195" r="6.941"/>
	<circle cx="203.03" cy="520.16" r="10.983"/>
	<circle cx="800.54" cy="727.97" r="4.094"/>
	<circle cx="434.31" cy="930.82" r="5.919"/>
	<circle cx="155.8" cy="1243.2" r="3.894"/>
	<circle cx="325.01" cy="487.94" r="4.127"/>
	<circle cx="1031.7" cy="1349.5" r="5.682"/>
	<circle cx="715.5" cy="421.62" r="3.155"/>
	<circle cx="987.74" cy="892.72" r="3.67"/>
	<circle cx="313.68" cy="491.56" r="4.377"/>
	<circle cx="186.24" cy="1423.1" r="2.913"/>
	<circle cx="550.11" cy="561.57" r="3.553"/>
	<circle cx="1238.8" cy="1475.3" r="4.804"/>
	<circle cx="629.57" cy="994.46" r="3.679"/>
	<circle cx="1139.8" cy="665.47" r="2.913"/>
	<circle cx="294.37" cy="1376.7" r="5.925"/>
	<circle cx="1448.3" cy="1307.5" r="4.79"/>
	<circle cx="795.2" cy="540.22" r="5.529"/>
	<circle cx="1391.3" cy="688.3" r="3.503"/>
	<circle cx="376.32" cy="1518.5" r="3.116"/>
	<circle cx="1110" cy="1429.9" r="4.243"/>
	<circle cx="715.31" cy="460.58" r="4.31"/>
	<circle cx="888.43" cy="1296.6" r="4.537"/>
	<circle cx="728.48" cy="1495.1" r="3.086"/>
	<circle cx="1505.3" cy="1360.9" r="5.932"/>
	<circle cx="1497.5" cy="808.72" r="2.913"/>
	<circle cx="213.82" cy="1331.1" r="2.913"/>
	<circle cx="1522.5" cy="1005.7" r="3.7"/>
	<circle cx="625.48" cy="898.52" r="5.367"/>
	<circle cx="1201.7" cy="1327.7" r="3.138"/>
	<circle cx="540.8" cy="1416.9" r="2.913"/>
	<circle cx="1459.7" cy="1321" r="4.238"/>
	<circle cx="589.11" cy="1408.8" r="10.75"/>
	<circle cx="578.64" cy="1011.9" r="2.913"/>
	<circle cx="1047.2" cy="665.42" r="3.062"/>
	<circle cx="1270.5" cy="1471.2" r="2.913"/>
	<circle cx="634.59" cy="904.37" r="4.456"/>
	<circle cx="532.6" cy="510.01" r="2.989"/>
	<circle cx="1520.6" cy="934.54" r="2.913"/>
	<circle cx="478.65" cy="1537.5" r="4.787"/>
	<circle cx="1165.5" cy="1354.1" r="3.205"/>
	<circle cx="761.61" cy="1407.1" r="5.688"/>
	<circle cx="806.51" cy="560.75" r="2.913"/>
	<circle cx="832.55" cy="1072.3" r="5.608"/>
	<circle cx="1545.6" cy="1014.3" r="4.251"/>
	<circle cx="463.01" cy="1585.4" r="2.913"/>
	<circle cx="574.87" cy="389.45" r="3.089"/>
	<circle cx="422.04" cy="889.62" r="2.913"/>
	<circle cx="1229.5" cy="595.23" r="2.913"/>
	<circle cx="132.38" cy="1217.6" r="3.174"/>
	<circle cx="1477.3" cy="759.43" r="5.839"/>
	<circle cx="713.38" cy="1371" r="4.123"/>
	<circle cx="739.42" cy="961.24" r="7.946"/>
	<circle cx="108.13" cy="1213.2" r="3.757"/>
	<circle cx="243.16" cy="1342.7" r="2.913"/>
	<circle cx="304.13" cy="1378" r="2.913"/>
	<circle cx="60.44" cy="1020.4" r="3.591"/>
	<circle cx="649.28" cy="973.54" r="5.001"/>
	<circle cx="1207.1" cy="691.87" r="4.38"/>
	<circle cx="1140.2" cy="767.18" r="2.913"/>
	<circle cx="548.06" cy="1584" r="2.913"/>
	<circle cx="527.88" cy="374.32" r="2.913"/>
	<circle cx="724.52" cy="469.34" r="2.913"/>
	<circle cx="116.01" cy="1210.5" r="2.913"/>
	<circle cx="70.273" cy="1075.6" r="2.926"/>
	<circle cx="1239.5" cy="1442.8" r="2.913"/>
	<circle cx="1084.8" cy="1277.8" r="2.913"/>
	<circle cx="241.78" cy="1450.6" r="3.354"/>
	<circle cx="1083.9" cy="850.58" r="2.913"/>
	<circle cx="1087.3" cy="842.39" r="4.823"/>
	<circle cx="523.19" cy="533.85" r="6.321"/>
	<circle cx="1354.3" cy="1230.7" r="7.408"/>
	<circle cx="140.01" cy="1294.6" r="5.192"/>
	<circle cx="131.48" cy="1312.4" r="5.192"/>
	<circle cx="147.05" cy="1304.1" r="5.192"/>
	<circle cx="99.579" cy="1294.3" r="5.192"/>
	<circle cx="106.36" cy="1326.5" r="5.192"/>
	<circle cx="74.715" cy="1233.3" r="5.192"/>
	<circle cx="87.021" cy="1217" r="5.192"/>
	<circle cx="59.646" cy="1184.8" r="5.192"/>
	<circle cx="56.883" cy="1165.5" r="5.192"/>
	<circle cx="47.842" cy="1092.9" r="5.192"/>
	<circle cx="1311.8" cy="1249.8" r="3.573"/>
	<circle cx="423.48" cy="818.7" r="2.913"/>
	<circle cx="742.63" cy="1104.2" r="7.001"/>
	<circle cx="380.3" cy="1505.4" r="5.175"/>
	<circle cx="1373.6" cy="1459.5" r="2.913"/>
	<circle cx="1331" cy="1477" r="7.515"/>
	<circle cx="849.56" cy="968.92" r="7.05"/>
	<circle cx="1070" cy="692.56" r="5.068"/>
	<circle cx="1164.5" cy="825.44" r="7.67"/>
	<circle cx="605" cy="865.66" r="4.474"/>
	<circle cx="1061.4" cy="1236.4" r="4.391"/>
	<circle cx="865.19" cy="1358.4" r="4.023"/>
	<circle cx="1026.1" cy="1192.4" r="2.913"/>
	<circle cx="270.02" cy="542.12" r="5.306"/>
	<circle cx="419.2" cy="896.74" r="3.749"/>
	<circle cx="645.72" cy="795.01" r="5.328"/>
	<circle cx="192.84" cy="508.17" r="3.744"/>
	<circle cx="1303" cy="592.02" r="3.03"/>
	<circle cx="425.91" cy="875.45" r="5.838"/>
	<circle cx="698.12" cy="1432.2" r="7.706"/>
	<circle cx="1019.2" cy="1297.4" r="2.636"/>
	<circle cx="467.97" cy="1506.1" r="3.405"/>
	<circle cx="597.7" cy="419.39" r="2.461"/>
	<circle cx="420.76" cy="598.4" r="2.68"/>
	<circle cx="783.98" cy="969.84" r="10.463"/>
	<circle cx="1052.8" cy="667.58" r="1.943"/>
	<circle cx="1546.1" cy="1030.4" r="3.544"/>
	<circle cx="270.22" cy="654.35" r="3.128"/>
	<circle cx="631.8" cy="807.76" r="1.943"/>
	<circle cx="1073" cy="1337.3" r="1.943"/>
	<circle cx="1150.6" cy="1472.9" r="2.582"/>
	<circle cx="219.2" cy="1475.3" r="1.943"/>
	<circle cx="1112.8" cy="641.82" r="3.603"/>
	<circle cx="1282.4" cy="1469.6" r="1.943"/>
	<circle cx="703.58" cy="577.55" r="1.943"/>
	<circle cx="368.57" cy="420" r="2.064"/>
	<circle cx="220.24" cy="518.63" r="2.342"/>
	<circle cx="1001.5" cy="760.38" r="4.773"/>
	<circle cx="965.81" cy="958.11" r="3.196"/>
	<circle cx="542.86" cy="1404.2" r="1.943"/>
	<circle cx="930.71" cy="913.41" r="4.74"/>
	<circle cx="1135.2" cy="902.59" r="3.533"/>
	<circle cx="1307.8" cy="1463.5" r="2.509"/>
	<circle cx="381.37" cy="1402.8" r="5.192"/>
	<circle cx="618.84" cy="404.16" r="2.854"/>
	<circle cx="1201.6" cy="719.79" r="7.887"/>
	<circle cx="586.85" cy="1622.9" r="4.075"/>
	<circle cx="727.04" cy="1286.7" r="2.257"/>
	<circle cx="718.58" cy="454.1" r="1.943"/>
	<circle cx="639.83" cy="1547.2" r="4.209"/>
	<circle cx="1555.8" cy="843.68" r="4.333"/>
	<circle cx="1009.3" cy="1130.3" r="2.702"/>
	<circle cx="376.94" cy="1498" r="1.943"/>
	<circle cx="466.56" cy="1607.7" r="8.653"/>
	<circle cx="574.9" cy="1487.2" r="4.757"/>
	<circle cx="1240.6" cy="612.57" r="1.943"/>
	<circle cx="1592.4" cy="1038.3" r="1.943"/>
	<circle cx="1198" cy="1335.9" r="2.821"/>
	<circle cx="618.82" cy="502.3" r="2.543"/>
	<circle cx="1276.2" cy="1482.3" r="5.018"/>
	<circle cx="1089.2" cy="875.6" r="5.224"/>
	<circle cx="1325.4" cy="665.64" r="4.147"/>
	<circle cx="634.58" cy="1019.9" r="6.127"/>
	<circle cx="1393.4" cy="1200.3" r="1.943"/>
	<circle cx="229.85" cy="526.12" r="4.144"/>
	<circle cx="1149.9" cy="851.08" r="7.154"/>
	<circle cx="663.91" cy="878.53" r="3.219"/>
	<circle cx="1072.3" cy="684.03" r="2.777"/>
	<circle cx="772.2" cy="1198.4" r="4.005"/>
	<circle cx="580.23" cy="1017.9" r="2.29"/>
	<circle cx="502.96" cy="844.19" r="5.151"/>
	<circle cx="876.84" cy="923.66" r="2.317"/>
	<circle cx="498.8" cy="554.12" r="2.802"/>
	<circle cx="1305.8" cy="1452.4" r="1.943"/>
	<circle cx="278.68" cy="578.56" r="4.524"/>
	<circle cx="689.24" cy="452.7" r="2.197"/>
	<circle cx="592.51" cy="473.51" r="2.326"/>
	<circle cx="1253.5" cy="595.36" r="1.943"/>
	<circle cx="1100.6" cy="768.8" r="4.749"/>
	<circle cx="373.5" cy="1410.8" r="3.475"/>
	<circle cx="451.01" cy="814.25" r="4.54"/>
	<circle cx="1254.3" cy="1476.2" r="5.399"/>
	<circle cx="1449.8" cy="714.96" r="4.945"/>
	<circle cx="641.04" cy="801.84" r="1.943"/>
	<circle cx="746.67" cy="1506.2" r="2.73"/>
	<circle cx="193.08" cy="1364.6" r="2.991"/>
	<circle cx="644.43" cy="967.24" r="1.943"/>
	<circle cx="754.86" cy="1209.6" r="1.943"/>
	<circle cx="1505.6" cy="1159.3" r="5.2"/>
	<circle cx="1041" cy="1186.9" r="2.201"/>
	<circle cx="1030.3" cy="703.66" r="1.943"/>
	<circle cx="1246.4" cy="1473.7" r="1.943"/>
	<circle cx="1336.1" cy="1339.7" r="1.943"/>
	<circle cx="1213.5" cy="674.02" r="4.338"/>
	<circle cx="533.98" cy="520.05" r="6.14"/>
	<circle cx="1509.1" cy="916.57" r="6.061"/>
	<circle cx="540.73" cy="564.47" r="5.18"/>
	<circle cx="1506.1" cy="973.17" r="2.517"/>
	<circle cx="225.53" cy="518.62" r="1.943"/>
	<circle cx="160.86" cy="1306.5" r="1.943"/>
	<circle cx="578.9" cy="1495.1" r="1.943"/>
	<circle cx="1425.5" cy="704.26" r="2.118"/>
	<circle cx="200.09" cy="1435.3" r="2.877"/>
	<circle cx="1179.4" cy="1320.4" r="2.281"/>
	<circle cx="1480.1" cy="1319.2" r="1.943"/>
	<circle cx="1206.6" cy="1315.6" r="2.452"/>
	<circle cx="457.52" cy="975.15" r="5.018"/>
	<circle cx="1054.5" cy="675.89" r="5.206"/>
	<circle cx="754.44" cy="558.51" r="1.943"/>
	<circle cx="1518.2" cy="1146.3" r="1.943"/>
	<circle cx="1116.8" cy="933.33" r="7.384"/>
	<circle cx="568.42" cy="811.7" r="7.156"/>
	<circle cx="402.27" cy="562.9" r="1.943"/>
	<circle cx="83.896" cy="1193.5" r="2.938"/>
	<circle cx="537.89" cy="882.77" r="4.201"/>
	<circle cx="912.64" cy="924.37" r="3.04"/>
	<circle cx="798.27" cy="531" r="3.189"/>
	<circle cx="1002.9" cy="1138.3" r="2.221"/>
	<circle cx="303.06" cy="1419.5" r="1.943"/>
	<circle cx="1441.9" cy="714.96" r="1.943"/>
	<circle cx="86.962" cy="1126.2" r="5.797"/>
	<circle cx="497.7" cy="861.11" r="1.943"/>
	<circle cx="1298" cy="588.05" r="2.253"/>
	<circle cx="1509" cy="1287.1" r="4.287"/>
	<circle cx="1133.9" cy="1390.6" r="1.943"/>
	<circle cx="1498.3" cy="855.58" r="3.396"/>
	<circle cx="1490.5" cy="1373.7" r="4.833"/>
	<circle cx="691.41" cy="951.72" r="1.943"/>
	<circle cx="250.19" cy="1463.1" r="1.943"/>
	<circle cx="873.72" cy="1354.2" r="4.485"/>
	<circle cx="1488" cy="702.99" r="3.578"/>
	<circle cx="482.58" cy="980.61" r="1.943"/>
	<circle cx="1119.2" cy="640.22" r="1.943"/>
	<circle cx="294.58" cy="519.64" r="1.943"/>
	<circle cx="824.61" cy="1366.1" r="5.252"/>
	<circle cx="618.88" cy="835.53" r="1.943"/>
	<circle cx="1541.5" cy="801.95" r="4.381"/>
	<circle cx="387.18" cy="1410.3" r="3.249"/>
	<circle cx="853.62" cy="1143.8" r="2.978"/>
	<circle cx="715.3" cy="659.78" r="3.666"/>
	<circle cx="1548.8" cy="845.48" r="1.943"/>
	<circle cx="305.62" cy="1521.6" r="4.855"/>
	<circle cx="489.44" cy="431.01" r="6.681"/>
	<circle cx="362.07" cy="1582.1" r="5.416"/>
	<circle cx="742.79" cy="774.75" r="1.943"/>
	<circle cx="993.05" cy="913.64" r="4.695"/>
	<circle cx="1143.8" cy="1458.4" r="1.943"/>
	<circle cx="785.66" cy="1063.2" r="4.482"/>
	<circle cx="806.65" cy="585.14" r="4.449"/>
	<circle cx="427.46" cy="387.28" r="2.681"/>
	<circle cx="758.9" cy="1296.1" r="5.147"/>
	<circle cx="604.51" cy="801.06" r="3.697"/>
	<circle cx="1558" cy="1223.7" r="2.257"/>
	<circle cx="908.26" cy="896.1" r="2.053"/>
	<circle cx="852.26" cy="949.83" r="1.943"/>
	<circle cx="593" cy="1027.3" r="4.109"/>
	<circle cx="668.65" cy="1609.5" r="1.943"/>
	<circle cx="617.58" cy="1538.1" r="3.024"/>
	<circle cx="1449.2" cy="1146.6" r="3.41"/>
	<circle cx="1522.3" cy="788.87" r="2.354"/>
	<circle cx="1568" cy="907.76" r="3.735"/>
	<circle cx="622.04" cy="576.12" r="1.943"/>
	<circle cx="862.24" cy="932.2" r="3.222"/>
	<circle cx="63.555" cy="1067.4" r="5.128"/>
	<circle cx="1516.5" cy="792.88" r="1.943"/>
	<circle cx="340.53" cy="449.38" r="3.676"/>
	<circle cx="1049.4" cy="652.76" r="3.02"/>
	<circle cx="1142.8" cy="633.71" r="1.943"/>
	<circle cx="868.25" cy="930.8" r="1.943"/>
	<circle cx="530.81" cy="1472.4" r="1.964"/>
	<circle cx="1452.4" cy="1260.7" r="4.6"/>
	<circle cx="527.15" cy="1410.2" r="7.944"/>
	<circle cx="873.77" cy="939.76" r="1.943"/>
	<circle cx="1088.2" cy="958.2" r="2.502"/>
	<circle cx="1293.2" cy="1309.4" r="2.461"/>
	<circle cx="943.71" cy="935.48" r="2.836"/>
	<circle cx="524.65" cy="1473.8" r="3.334"/>
	<circle cx="841.24" cy="1180" r="1.943"/>
	<circle cx="390.31" cy="505.54" r="7.2"/>
	<circle cx="832.38" cy="1432.5" r="2.106"/>
	<circle cx="749.54" cy="546.06" r="4.101"/>
	<circle cx="499.95" cy="560.94" r="3.11"/>
	<circle cx="1026.3" cy="1274.9" r="6.603"/>
	<circle cx="1029.6" cy="1291.3" r="6.603"/>
	<circle cx="406.07" cy="809.46" r="6.412"/>
	<circle cx="327.06" cy="1414.2" r="3.161"/>
	<circle cx="681.76" cy="1601.1" r="8.238"/>
	<circle cx="829.78" cy="1347" r="1.943"/>
	<circle cx="1064.5" cy="986.48" r="2.081"/>
	<circle cx="1489.5" cy="812.32" r="4.849"/>
	<circle cx="1034.5" cy="695.51" r="1.943"/>
	<circle cx="730.58" cy="1306.1" r="7.371"/>
	<circle cx="503.14" cy="499.32" r="5.868"/>
	<circle cx="650.44" cy="780.32" r="2.89"/>
	<circle cx="328.19" cy="612.18" r="2.153"/>
	<circle cx="534.89" cy="958.13" r="2.072"/>
	<circle cx="333.06" cy="1415.3" r="1.943"/>
	<circle cx="769.45" cy="666.39" r="1.943"/>
	<circle cx="449.12" cy="1486.7" r="4.666"/>
	<circle cx="539.56" cy="890.92" r="3.115"/>
	<circle cx="656.38" cy="888.15" r="2.183"/>
	<circle cx="695.32" cy="1375.6" r="5.223"/>
	<circle cx="1025.8" cy="1265.4" r="1.943"/>
	<circle cx="422.14" cy="804.38" r="4.432"/>
	<circle cx="1237.7" cy="592.66" r="1.943"/>
	<circle cx="1546.6" cy="794.68" r="3.553"/>
	<circle cx="648.55" cy="1031.6" r="4.461"/>
	<circle cx="509.63" cy="405.56" r="3.54"/>
	<circle cx="91.729" cy="1206.1" r="1.943"/>
	<circle cx="1366.8" cy="1345.6" r="4.846"/>
	<circle cx="343.14" cy="1556" r="1.943"/>
	<circle cx="549.94" cy="808.47" r="2.216"/>
	<circle cx="468.7" cy="1576.7" r="2.08"/>
	<circle cx="1422.6" cy="1428.5" r="2.825"/>
	<circle cx="1415.9" cy="1194.6" r="5.221"/>
	<circle cx="970.71" cy="912.2" r="1.943"/>
	<circle cx="1329.4" cy="685.41" r="7.192"/>
	<circle cx="651.4" cy="1573.1" r="3.97"/>
	<circle cx="1553.3" cy="1206.6" r="3.636"/>
	<circle cx="1559.8" cy="1141.8" r="6.724"/>
	<circle cx="585.54" cy="1431.9" r="1.943"/>
	<circle cx="621.8" cy="1010" r="6.67"/>
	<circle cx="592.1" cy="484.08" r="1.943"/>
	<circle cx="1516" cy="1038.9" r="2.198"/>
	<circle cx="753.3" cy="1264.6" r="2.048"/>
	<circle cx="869.69" cy="1429.2" r="3.737"/>
	<circle cx="1521.4" cy="876.24" r="3.196"/>
	<circle cx="466.81" cy="418.94" r="1.943"/>
	<circle cx="448.46" cy="1597.8" r="6.504"/>
	<circle cx="733.62" cy="1087.8" r="1.943"/>
	<circle cx="965.17" cy="798.74" r="1.943"/>
	<circle cx="1419.1" cy="1289.5" r="4.352"/>
	<circle cx="1016.9" cy="691.42" r="4.407"/>
	<circle cx="1040.4" cy="411.86" r="27.798"/>
	<circle cx="1178.3" cy="420.43" r="28.024"/>
	<circle cx="1330.1" cy="357.2" r="27.904"/>
	<circle cx="789.66" cy="292.98" r="28.114"/>
	<circle cx="1352.4" cy="290.25" r="28.094"/>
	<circle cx="1240.2" cy="302.34" r="28.987"/>
	<circle cx="935.35" cy="424.67" r="28.301"/>
	<circle cx="1265.5" cy="376.22" r="28.294"/>
	<circle cx="1291.1" cy="431.75" r="27.919"/>
	<circle cx="1187.2" cy="355.67" r="27.992"/>
	<circle cx="1126.8" cy="375.74" r="27.813"/>
	<circle cx="871.75" cy="359.85" r="28.99"/>
	<circle cx="1109.1" cy="482.18" r="27.834"/>
	<circle cx="1005.2" cy="474.51" r="28.684"/>
	<circle cx="1296.2" cy="274.84" r="27.977"/>
	<circle cx="1227.8" cy="452.32" r="28.874"/>
	<circle cx="1416.1" cy="356.59" r="29.098"/>
	<circle cx="988.64" cy="381.98" r="28.458"/>
	<circle cx="817.32" cy="343.65" r="27.796"/>
	<circle cx="1167.9" cy="476.46" r="28.226"/>
	<circle cx="879.85" cy="423.87" r="18.541"/>
	<circle cx="1372.1" cy="378.45" r="19.11"/>
	<circle cx="1092.3" cy="412.24" r="19.718"/>
	<circle cx="1342.2" cy="421.66" r="19.461"/>
	<circle cx="1376.1" cy="330.6" r="18.54"/>
	<circle cx="1063.4" cy="474.52" r="18.54"/>
	<circle cx="942.45" cy="476.21" r="19.822"/>
	<circle cx="941.24" cy="372.87" r="18.673"/>
	<circle cx="1066.4" cy="368.66" r="19.748"/>
	<circle cx="1297.6" cy="321.75" r="18.651"/>
	<circle cx="1127.4" cy="427.53" r="18.54"/>
	<circle cx="906.74" cy="387.9" r="15.863"/>
	<circle cx="1215.2" cy="402.37" r="13.077"/>
	<circle cx="979.4" cy="424.93" r="14.408"/>
	<circle cx="1025.9" cy="363.94" r="12.781"/>
	<circle cx="1321.5" cy="222.23" r="14.83"/>
	<circle cx="844.62" cy="401.14" r="12.488"/>
	<circle cx="763.45" cy="242.03" r="12.885"/>
	<circle cx="1392.5" cy="295.93" r="12.366"/>
	<circle cx="1073.6" cy="440.53" r="13.649"/>
	<circle cx="1256.3" cy="260.12" r="12.501"/>
	<circle cx="896.63" cy="451.83" r="12.731"/>
	<circle cx="1329.7" cy="252.38" r="12.366"/>
	<circle cx="830.45" cy="304.47" r="13.528"/>
	<circle cx="1195.4" cy="306.71" r="12.615"/>
	<circle cx="1229.2" cy="347.64" r="13.405"/>
	<circle cx="1151.7" cy="330.53" r="15.475"/>
	<circle cx="1265.4" cy="338.52" r="8.862"/>
	<circle cx="1038.2" cy="457.85" r="8.248"/>
	<circle cx="1047.8" cy="497.2" r="8.959"/>
	<circle cx="1319.1" cy="406.4" r="8.248"/>
	<circle cx="1219.4" cy="379.7" r="9.973"/>
	<circle cx="1326.4" cy="319.6" r="9.191"/>
	<circle cx="1409.1" cy="316.07" r="10.439"/>
	<circle cx="751.45" cy="208.83" r="8.725"/>
	<circle cx="1203.6" cy="487.7" r="9.202"/>
	<circle cx="1280.5" cy="467.57" r="8.77"/>
	<circle cx="764.85" cy="263.12" r="8.248"/>
	<circle cx="743.75" cy="253.58" r="8.248"/>
	<circle cx="737.89" cy="234.49" r="8.248"/>
	<circle cx="752.29" cy="292.92" r="8.248"/>
	<circle cx="733.7" cy="214.4" r="8.248"/>
	<circle cx="726.84" cy="176.56" r="8.248"/>
	<circle cx="830.74" cy="384.07" r="8.833"/>
	<circle cx="1306.5" cy="392.74" r="10.297"/>
	<circle cx="1290.9" cy="233.51" r="8.82"/>
	<circle cx="1357" cy="247.87" r="10.042"/>
	<circle cx="854.15" cy="323.95" r="10.987"/>
	<circle cx="1242.4" cy="405.66" r="9.185"/>
	<circle cx="969.72" cy="450.12" r="12.568"/>
	<circle cx="911.11" cy="363.79" r="8.641"/>
	<circle cx="1286.6" cy="346.31" r="8.248"/>
	<circle cx="918.22" cy="462.02" r="8.248"/>
	<circle cx="967.85" cy="489.21" r="8.71"/>
	<circle cx="1368.9" cy="411.48" r="9.143"/>
	<circle cx="1067.3" cy="508.9" r="5.698"/>
	<circle cx="783.72" cy="332.39" r="6.693"/>
	<circle cx="757.76" cy="310.12" r="6.693"/>
	<circle cx="774.67" cy="351.98" r="4.851"/>
	<circle cx="762.62" cy="322.85" r="4.851"/>
	<circle cx="770.15" cy="337.58" r="4.851"/>
	<circle cx="1378.3" cy="268.81" r="5.546"/>
	<circle cx="1388" cy="399.81" r="7.515"/>
	<circle cx="1190.2" cy="389.03" r="5.502"/>
	<circle cx="1009.3" cy="425.89" r="6.251"/>
	<circle cx="1160.2" cy="381.6" r="6.171"/>
	<circle cx="1270" cy="324.92" r="5.502"/>
	<circle cx="1402.7" cy="391.2" r="7.996"/>
	<circle cx="1314.9" cy="455.69" r="5.841"/>
	<circle cx="1073.1" cy="395.3" r="5.918"/>
	<circle cx="870.57" cy="397.4" r="8.58"/>
	<circle cx="1177.6" cy="318.03" r="6.286"/>
	<circle cx="797.27" cy="372.29" r="7.16"/>
	<circle cx="826.73" cy="399.26" r="5.502"/>
	<circle cx="1348.9" cy="232.55" r="7.278"/>
	<circle cx="1091.5" cy="366.09" r="5.502"/>
	<circle cx="957.95" cy="355.41" r="5.502"/>
	<circle cx="958.51" cy="400.04" r="5.502"/>
	<circle cx="774.41" cy="324.51" r="5.502"/>
	<circle cx="1341.7" cy="219.88" r="5.502"/>
	<circle cx="998.83" cy="420.61" r="5.502"/>
	<circle cx="1332.8" cy="446.74" r="6.08"/>
	<circle cx="1135.5" cy="512.2" r="6.358"/>
	<circle cx="885.4" cy="395.84" r="6.332"/>
	<circle cx="1177.3" cy="304.84" r="5.502"/>
	<circle cx="1121.3" cy="341.62" r="5.559"/>
	<circle cx="1276.8" cy="245.7" r="7.033"/>
	<circle cx="1036.6" cy="378.79" r="5.502"/>
	<circle cx="1150.3" cy="441.03" r="6.452"/>
	<circle cx="1214.4" cy="278.62" r="5.991"/>
	<circle cx="1259.9" cy="415.7" r="7.198"/>
	<circle cx="784.74" cy="362.17" r="6.296"/>
	<circle cx="1248.6" cy="343.26" r="6.549"/>
	<circle cx="1323.7" cy="392.07" r="6.826"/>
	<circle cx="1298.9" cy="464.26" r="5.502"/>
	<circle cx="1103.4" cy="437.48" r="7.448"/>
	<circle cx="1209.5" cy="319.28" r="6.009"/>
	<circle cx="1150.7" cy="401.33" r="5.502"/>
	<circle cx="1266.7" cy="464.1" r="5.502"/>
	<circle cx="1362.1" cy="350.31" r="4.792"/>
	<circle cx="819.09" cy="388.62" r="3.67"/>
	<circle cx="1097.6" cy="352.98" r="7.295"/>
	<circle cx="1092.4" cy="511.3" r="5.727"/>
	<circle cx="855.88" cy="424.62" r="5.084"/>
	<circle cx="1170" cy="311.61" r="3.67"/>
	<circle cx="1256.7" cy="467.25" r="3.67"/>
	<circle cx="755.7" cy="222.81" r="3.952"/>
	<circle cx="969.67" cy="470.22" r="7.152"/>
	<circle cx="1317.2" cy="310.62" r="3.67"/>
	<circle cx="1089.5" cy="384.63" r="4.88"/>
	<circle cx="1148.7" cy="451.02" r="3.67"/>
	<circle cx="810.35" cy="383.74" r="6.343"/>
	<circle cx="1218.1" cy="334.6" r="3.67"/>
	<circle cx="1230.3" cy="270.77" r="4.092"/>
	<circle cx="743.71" cy="197.55" r="4.959"/>
	<circle cx="721.44" cy="160.88" r="4.959"/>
	<circle cx="719.09" cy="147.99" r="4.959"/>
	<circle cx="728.97" cy="199.06" r="4.959"/>
	<circle cx="749.57" cy="269.88" r="4.959"/>
	<circle cx="780.37" cy="252.3" r="4.959"/>
	<circle cx="759.61" cy="279.26" r="4.959"/>
	<circle cx="746.05" cy="280.09" r="4.959"/>
	<circle cx="735.21" cy="188.15" r="3.809"/>
	<circle cx="716.46" cy="137.92" r="3.809"/>
	<circle cx="713.95" cy="128.38" r="3.809"/>
	<circle cx="1448.8" cy="359.26" r="3.778"/>
	<circle cx="1395" cy="315.19" r="3.67"/>
	<circle cx="1272.9" cy="299.95" r="3.87"/>
	<circle cx="875.18" cy="445.58" r="3.67"/>
	<circle cx="1118.7" cy="515.19" r="5.33"/>
	<circle cx="846.44" cy="417.39" r="3.865"/>
	<circle cx="1085.4" cy="503.62" r="4.099"/>
	<circle cx="1039.6" cy="443.94" r="4.291"/>
	<circle cx="1324.8" cy="452.23" r="3.67"/>
	<circle cx="1233.3" cy="378.15" r="4.01"/>
	<circle cx="1077.4" cy="493.39" r="5.002"/>
	<circle cx="901.03" cy="433.47" r="4.711"/>
	<circle cx="1173" cy="386.34" r="5.789"/>
	<circle cx="1353.2" cy="328.83" r="4.46"/>
	<circle cx="1369.5" cy="253.5" r="3.67"/>
	<circle cx="1001.3" cy="411.5" r="3.67"/>
	<circle cx="1259.4" cy="275.98" r="3.67"/>
	<circle cx="1031.3" cy="448.04" r="3.734"/>
	<circle cx="1081.5" cy="455.92" r="3.67"/>
	<circle cx="1298.2" cy="379.22" r="4.456"/>
	<circle cx="1260" cy="439.54" r="4.184"/>
	<circle cx="1298.5" cy="344.05" r="3.67"/>
	<circle cx="1152.2" cy="350.83" r="4.836"/>
	<circle cx="1190.3" cy="451.78" r="5.094"/>
	<circle cx="781.36" cy="343.68" r="4.84"/>
	<circle cx="782.8" cy="261.95" r="3.67"/>
	<circle cx="1136.1" cy="405.81" r="3.67"/>
	<circle cx="1231.8" cy="394.22" r="5.358"/>
	<circle cx="1296.2" cy="356.4" r="5.747"/>
	<circle cx="1301.3" cy="370.1" r="3.67"/>
	<circle cx="918.35" cy="481.46" r="3.859"/>
	<circle cx="839.64" cy="372.38" r="5.477"/>
	<circle cx="1202.5" cy="387.9" r="6.217"/>
	<circle cx="1360.7" cy="399.52" r="4.848"/>
	<circle cx="855.62" cy="415.88" r="3.67"/>
	<circle cx="1234.4" cy="417.7" r="5.254"/>
	<circle cx="1008.5" cy="415.55" r="4.126"/>
	<circle cx="1124.1" cy="449.79" r="3.958"/>
	<circle cx="1311.1" cy="240.36" r="6.095"/>
	<circle cx="1096.8" cy="389.02" r="3.67"/>
	<circle cx="748.37" cy="224.9" r="3.67"/>
	<circle cx="1350.2" cy="389.04" r="5.166"/>
	<circle cx="979.35" cy="498.39" r="6.012"/>
	<circle cx="903.57" cy="414.77" r="4.987"/>
	<circle cx="1112.2" cy="342.44" r="3.67"/>
	<circle cx="1243.4" cy="421.34" r="4.424"/>
	<circle cx="1199.5" cy="285.95" r="4.68"/>
	<circle cx="925.84" cy="164.87" r="16.151"/>
	<circle cx="1052.4" cy="159.1" r="16.273"/>
	<circle cx="946" cy="232.37" r="16.105"/>
	<circle cx="1015.8" cy="184.22" r="16.615"/>
	<circle cx="1080.3" cy="186.19" r="16.364"/>
	<circle cx="1015.8" cy="130.9" r="16.436"/>
	<circle cx="931.84" cy="201.35" r="16.088"/>
	<circle cx="946.36" cy="131.5" r="16.354"/>
	<circle cx="1031.4" cy="232.17" r="16.243"/>
	<circle cx="1091.3" cy="141.87" r="16.538"/>
	<circle cx="990.27" cy="204.59" r="16.035"/>
	<circle cx="957.42" cy="176" r="17.296"/>
	<circle cx="1075.6" cy="225.02" r="16.863"/>
	<circle cx="1004" cy="264.96" r="16.075"/>
	<circle cx="989.33" cy="155.87" r="16.257"/>
	<circle cx="1051.4" cy="122.57" r="18.423"/>
	<circle cx="1014.3" cy="83.034" r="16.107"/>
	<circle cx="962.81" cy="98.48" r="16.904"/>
	<circle cx="1049.6" cy="200.65" r="17.18"/>
	<circle cx="1041.9" cy="262.73" r="16.082"/>
	<circle cx="1127" cy="169.2" r="16.972"/>
	<circle cx="893.71" cy="180.56" r="16.187"/>
	<circle cx="1048.7" cy="89.828" r="11.603"/>
	<circle cx="976.3" cy="238.18" r="11.391"/>
	<circle cx="974.39" cy="263.1" r="11.299"/>
	<circle cx="987.83" cy="77.969" r="10.868"/>
	<circle cx="1025.4" cy="156.66" r="10.858"/>
	<circle cx="1013" cy="290.5" r="11.022"/>
	<circle cx="902.2" cy="152.14" r="10.695"/>
	<circle cx="978.68" cy="129.5" r="11.568"/>
	<circle cx="994.82" cy="55.104" r="10.897"/>
	<circle cx="993.54" cy="112.28" r="11.173"/>
	<circle cx="1004" cy="237.35" r="11.542"/>
	<circle cx="1106.6" cy="202.83" r="12.217"/>
	<circle cx="965.08" cy="216.92" r="7.487"/>
	<circle cx="1078.6" cy="110.72" r="7.48"/>
	<circle cx="1016.4" cy="53.682" r="8.713"/>
	<circle cx="921.65" cy="133.88" r="8.474"/>
	<circle cx="1098.5" cy="168" r="9.329"/>
	<circle cx="900.74" cy="202.81" r="7.144"/>
	<circle cx="985.68" cy="178.98" r="7.134"/>
	<circle cx="1025.1" cy="206.8" r="7.816"/>
	<circle cx="1107.3" cy="183.14" r="7.197"/>
	<circle cx="961.77" cy="249.66" r="7.134"/>
	<circle cx="994.99" cy="287.59" r="7.266"/>
	<circle cx="1115.9" cy="146.03" r="7.187"/>
	<circle cx="1024.9" cy="104.85" r="7.152"/>
	<circle cx="924.56" cy="223.4" r="7.134"/>
	<circle cx="954.67" cy="206.65" r="7.134"/>
	<circle cx="1058.8" cy="243.05" r="7.531"/>
	<circle cx="1068.2" cy="100.42" r="7.134"/>
	<circle cx="966.4" cy="147.86" r="8.027"/>
	<circle cx="1038.3" cy="69.126" r="5.289"/>
	<circle cx="1002.3" cy="303.27" r="4.949"/>
	<circle cx="1044.3" cy="179.35" r="4.758"/>
	<circle cx="1060" cy="179.82" r="4.882"/>
	<circle cx="967.26" cy="202.14" r="6.238"/>
	<circle cx="950.36" cy="153.12" r="4.927"/>
	<circle cx="1009.4" cy="218.6" r="6.173"/>
	<circle cx="975.64" cy="66.781" r="5.165"/>
	<circle cx="994.65" cy="132.89" r="4.758"/>
	<circle cx="1035.7" cy="99.788" r="4.758"/>
	<circle cx="1065.8" cy="140.76" r="4.758"/>
	<circle cx="1009.8" cy="110.21" r="5.106"/>
	<circle cx="981.83" cy="281.44" r="7.211"/>
	<circle cx="1006.4" cy="39.327" r="4.954"/>
	<circle cx="908.44" cy="215.38" r="6.182"/>
	<circle cx="1122.3" cy="193.48" r="6.042"/>
	<circle cx="1026.9" cy="66.235" r="4.884"/>
	<circle cx="872.76" cy="175.84" r="5.284"/>
	<circle cx="1077.8" cy="158.32" r="4.758"/>
	<circle cx="1035.4" cy="284.79" r="5.669"/>
	<circle cx="1090.8" cy="118.69" r="6.154"/>
	<circle cx="939.2" cy="105.88" r="4.869"/>
	<circle cx="1096.3" cy="218.19" r="4.965"/>
	<circle cx="1108.6" cy="155.5" r="4.758"/>
	<circle cx="987.72" cy="224.86" r="4.388"/>
	<circle cx="999.5" cy="97.472" r="4.194"/>
	<circle cx="931.68" cy="116.64" r="4.538"/>
	<circle cx="1013.3" cy="208.37" r="4.123"/>
	<circle cx="1034.3" cy="176.32" r="3.505"/>
	<circle cx="1027" cy="281.89" r="3.292"/>
	<circle cx="1033.7" cy="82.77" r="3.313"/>
	<circle cx="1015.7" cy="308.31" r="3.251"/>
	<circle cx="976.73" cy="219" r="3.736"/>
	<circle cx="889.36" cy="199.43" r="3.174"/>
	<circle cx="951.68" cy="195.65" r="3.174"/>
	<circle cx="992.15" cy="97.926" r="3.174"/>
	<circle cx="1036.4" cy="140.03" r="4.573"/>
	<circle cx="1081.1" cy="122.36" r="4.213"/>
	<circle cx="1018.7" cy="217.52" r="3.174"/>
	<circle cx="953.89" cy="260.13" r="3.997"/>
	<circle cx="919.75" cy="184.05" r="3.828"/>
	<circle cx="976.46" cy="186.32" r="4.354"/>
	<circle cx="1069.6" cy="251.42" r="4.668"/>
	<circle cx="910.86" cy="139.52" r="3.699"/>
	<circle cx="1045.7" cy="73.274" r="3.201"/>
	<circle cx="964.38" cy="118.5" r="3.174"/>
	<circle cx="1069.1" cy="149.08" r="3.174"/>
	<circle cx="1091.5" cy="205.66" r="3.174"/>
	<circle cx="1073.2" cy="165.56" r="3.799"/>
	<circle cx="1008.4" cy="165.63" r="3.403"/>
	<circle cx="872.06" cy="185.9" r="3.264"/>
	<circle cx="1082.8" cy="205.56" r="3.174"/>
	<circle cx="1020.1" cy="251.33" r="5.063"/>
	<circle cx="1053.6" cy="224.09" r="5.108"/>
	<circle cx="1007.6" cy="309.38" r="3.174"/>
	<circle cx="1031.4" cy="74.092" r="3.174"/>
	<circle cx="1000.3" cy="221.82" r="3.463"/>
	<circle cx="1057" cy="232.49" r="3.174"/>
	<circle cx="970.47" cy="73.82" r="3.212"/>
	<circle cx="1100.1" cy="123.28" r="3.286"/>
	<circle cx="913.22" cy="186.58" r="3.174"/>
	<circle cx="964.82" cy="76.794" r="3.174"/>
	<circle cx="911.84" cy="199.16" r="4.026"/>
	<circle cx="884.14" cy="161.73" r="4.35"/>
	<circle cx="1147.1" cy="169.24" r="3.174"/>
	<circle cx="987.06" cy="255.78" r="3.174"/>
	<circle cx="909.76" cy="191.93" r="3.199"/>
	<circle cx="942.64" cy="150.67" r="3.174"/>
	<circle cx="1001.6" cy="67.447" r="3.174"/>
	<circle cx="944.93" cy="111.53" r="3.174"/>
</svg>
